<svg width="171" height="40" viewBox="0 0 171 40" fill="none" xmlns="http://www.w3.org/2000/svg">
<path d="M122.015 30V9.84H125.599V18.24C126.066 17.4747 126.691 16.8773 127.475 16.448C128.278 16 129.193 15.776 130.219 15.776C131.937 15.776 133.262 16.3173 134.195 17.4C135.147 18.4827 135.623 20.0693 135.623 22.16V30H132.067V22.496C132.067 21.3013 131.825 20.3867 131.339 19.752C130.873 19.1173 130.126 18.8 129.099 18.8C128.091 18.8 127.251 19.1547 126.579 19.864C125.926 20.5733 125.599 21.5627 125.599 22.832V30H122.015ZM144.258 30.336C142.522 30.336 141.178 29.7947 140.226 28.712C139.293 27.6293 138.826 26.0427 138.826 23.952V16.112H142.382V23.616C142.382 24.8107 142.625 25.7253 143.11 26.36C143.596 26.9947 144.361 27.312 145.406 27.312C146.396 27.312 147.208 26.9573 147.842 26.248C148.496 25.5387 148.822 24.5493 148.822 23.28V16.112H152.406V30H149.242L148.962 27.648C148.533 28.4693 147.908 29.1227 147.086 29.608C146.284 30.0933 145.341 30.336 144.258 30.336ZM162.834 30.336C161.434 30.336 160.192 30.0373 159.11 29.44C158.027 28.8427 157.178 28.0027 156.562 26.92C155.946 25.8373 155.638 24.5867 155.638 23.168C155.638 21.7307 155.936 20.452 156.534 19.332C157.15 18.212 157.99 17.344 159.054 16.728C160.136 16.0933 161.406 15.776 162.862 15.776C164.224 15.776 165.428 16.0747 166.474 16.672C167.519 17.2693 168.331 18.0907 168.91 19.136C169.507 20.1627 169.806 21.3107 169.806 22.58C169.806 22.7853 169.796 23 169.778 23.224C169.778 23.448 169.768 23.6813 169.75 23.924H159.194C159.268 25.0067 159.642 25.856 160.314 26.472C161.004 27.088 161.835 27.396 162.806 27.396C163.534 27.396 164.14 27.2373 164.626 26.92C165.13 26.584 165.503 26.1547 165.746 25.632H169.386C169.124 26.5093 168.686 27.312 168.07 28.04C167.472 28.7493 166.726 29.3093 165.83 29.72C164.952 30.1307 163.954 30.336 162.834 30.336ZM162.862 18.688C161.984 18.688 161.21 18.94 160.538 19.444C159.866 19.9293 159.436 20.676 159.25 21.684H166.166C166.11 20.7693 165.774 20.0413 165.158 19.5C164.542 18.9587 163.776 18.688 162.862 18.688Z" fill="url(#paint0_linear)"/>
<path d="M47.82 30V16.112H50.984L51.264 18.464C51.6933 17.6427 52.3093 16.9893 53.112 16.504C53.9333 16.0187 54.8947 15.776 55.996 15.776C57.7133 15.776 59.048 16.3173 60 17.4C60.952 18.4827 61.428 20.0693 61.428 22.16V30H57.844V22.496C57.844 21.3013 57.6013 20.3867 57.116 19.752C56.6307 19.1173 55.8747 18.8 54.848 18.8C53.84 18.8 53.0093 19.1547 52.356 19.864C51.7213 20.5733 51.404 21.5627 51.404 22.832V30H47.82ZM70.0632 30.336C68.3272 30.336 66.9832 29.7947 66.0312 28.712C65.0978 27.6293 64.6312 26.0427 64.6312 23.952V16.112H68.1872V23.616C68.1872 24.8107 68.4298 25.7253 68.9152 26.36C69.4005 26.9947 70.1658 27.312 71.2112 27.312C72.2005 27.312 73.0125 26.9573 73.6472 26.248C74.3005 25.5387 74.6272 24.5493 74.6272 23.28V16.112H78.2112V30H75.0472L74.7672 27.648C74.3378 28.4693 73.7125 29.1227 72.8912 29.608C72.0885 30.0933 71.1458 30.336 70.0632 30.336ZM80.5743 30L85.6143 23.056L80.5743 16.112H84.4103L87.9383 21.04L91.4383 16.112H95.3023L90.2343 23.056L95.3023 30H91.4383L87.9383 25.072L84.4103 30H80.5743ZM103.774 30C102.318 30 101.151 29.6453 100.274 28.936C99.3963 28.2267 98.9576 26.9667 98.9576 25.156V19.108H96.5776V16.112H98.9576L99.3776 12.388H102.542V16.112H106.294V19.108H102.542V25.184C102.542 25.856 102.682 26.3227 102.962 26.584C103.26 26.8267 103.764 26.948 104.474 26.948H106.21V30H103.774ZM108.195 33.108L115.195 8.244H118.695L111.667 33.108H108.195Z" fill="#003C3C"/>
<ellipse cx="17" cy="20" rx="17" ry="17" transform="rotate(45 17 20)" fill="url(#paint1_linear)"/>
<defs>
<linearGradient id="paint0_linear" x1="120" y1="20" x2="171" y2="20" gradientUnits="userSpaceOnUse">
<stop stop-color="#ED1C24"/>
<stop offset="0.053733" stop-color="#EF4423"/>
<stop offset="0.1314" stop-color="#F26522"/>
<stop offset="0.1732" stop-color="#F37021"/>
<stop offset="0.1857" stop-color="#F47521"/>
<stop offset="0.2678" stop-color="#F8941F"/>
<stop offset="0.3316" stop-color="#FAA81C"/>
<stop offset="0.3688" stop-color="#FCAF1A"/>
<stop offset="0.4089" stop-color="#EFB320"/>
<stop offset="0.4855" stop-color="#D2BB2B"/>
<stop offset="0.5898" stop-color="#9CC33C"/>
<stop offset="0.6117" stop-color="#8DC63F"/>
<stop offset="0.6812" stop-color="#71BA64"/>
<stop offset="0.7752" stop-color="#43AF8D"/>
<stop offset="0.8198" stop-color="#26AB9A"/>
<stop offset="0.8555" stop-color="#1DA29F"/>
<stop offset="0.9265" stop-color="#008AA7"/>
<stop offset="1" stop-color="#006EAB"/>
</linearGradient>
<linearGradient id="paint1_linear" x1="9.53674e-06" y1="20" x2="34" y2="20" gradientUnits="userSpaceOnUse">
<stop stop-color="#ED1C24"/>
<stop offset="0.053733" stop-color="#EF4423"/>
<stop offset="0.1314" stop-color="#F26522"/>
<stop offset="0.1732" stop-color="#F37021"/>
<stop offset="0.1857" stop-color="#F47521"/>
<stop offset="0.2678" stop-color="#F8941F"/>
<stop offset="0.3316" stop-color="#FAA81C"/>
<stop offset="0.3688" stop-color="#FCAF1A"/>
<stop offset="0.4089" stop-color="#EFB320"/>
<stop offset="0.4855" stop-color="#D2BB2B"/>
<stop offset="0.5898" stop-color="#9CC33C"/>
<stop offset="0.6117" stop-color="#8DC63F"/>
<stop offset="0.6812" stop-color="#71BA64"/>
<stop offset="0.7752" stop-color="#43AF8D"/>
<stop offset="0.8198" stop-color="#26AB9A"/>
<stop offset="0.8555" stop-color="#1DA29F"/>
<stop offset="0.9265" stop-color="#008AA7"/>
<stop offset="1" stop-color="#006EAB"/>
</linearGradient>
</defs>
</svg>
